# File created by Blade
# Date/Time:  Wed Jan 21 16:02:10 2015
#---------------------------------------------------------
:version 1.10
:name HOM
:units
  mass 1.0
  length 1.000000
  angle deg
:documentation
     Acclaim Skeleton File
:root
   axis xyz
   order TX TY TZ RX RY RZ
   position 0.000000 0.000000 0.000000
   orientation 0 0 0
:bonedata
   begin
      id 1
      name Spine_dum
      direction 0.000000 1.000000 0.000000
      length 7.067664
      axis 0.0 0.0 0.0 xyz
   end
   begin
      id 2
      name LeftUpLeg_dum
      direction 1.000000 0.000000 0.000000
      length 4.013002
      axis 0.0 0.0 0.0 xyz
   end
   begin
      id 3
      name RightUpLeg_dum
      direction -1.000000 0.000000 0.000000
      length 4.013002
      axis 0.0 0.0 0.0 xyz
   end
   begin
      id 4
      name Spine
      direction 0.000000 1.000000 0.000000
      length 0.000000
      axis 0.0 0.0 0.0 xyz
      dof rx ry rz
   end
   begin
      id 5
      name Spine_dum1
      direction 0.000000 1.000000 0.000000
      length 15.039886
      axis 0.0 0.0 0.0 xyz
   end
   begin
      id 6
      name Spine_dum2
      direction 0.000000 1.000000 0.000000
      length 10.530368
      axis 0.0 0.0 0.0 xyz
   end
   begin
      id 7
      name Spine_dum3
      direction 0.000000 1.000000 0.000000
      length 10.530368
      axis 0.0 0.0 0.0 xyz
   end
   begin
      id 8
      name Head
      direction 0.000000 1.000000 0.000000
      length 4.527550
      axis 0.0 0.0 0.0 xyz
      dof rx ry rz
   end
   begin
      id 9
      name LeftShoulder
      direction 1.000000 0.000000 0.000000
      length 7.028855
      axis 0.0 0.0 -90.0 xyz
      dof rx ry rz
   end
   begin
      id 10
      name LeftArm
      direction 1.000000 0.000000 0.000000
      length 10.797705
      axis 0.0 0.0 -90.0 xyz
      dof rx ry rz
   end
   begin
      id 11
      name LeftForeArm
      direction 1.000000 0.000000 0.000000
      length 7.907442
      axis 0.0 0.0 -90.0 xyz
      dof ry rz rx
   end
   begin
      id 12
      name LeftHand
      direction 0.000000 0.000000 0.000000
      length 0.000000
      axis 0.0 0.0 -90.0 xyz
      dof rx ry rz
   end
   begin
      id 13
      name LeftHand_dum1
      direction 0.000000 0.000000 0.000000
      length 0.000000
      axis 0.0 0.0 -90.0 xyz
   end
   begin
      id 14
      name LeftHand_dum2
      direction 1.000000 0.000000 0.000000
      length 3.937000
      axis 0.0 0.0 -90.0 xyz
   end
   begin
      id 15
      name LeftHandThumb1
      direction 0.000000 0.000000 1.000000
      length 3.937000
      axis 0.0 0.0 -90.0 xyz
      dof rx rz ry
   end
   begin
      id 16
      name RightShoulder
      direction -1.000000 0.000000 0.000000
      length 7.028855
      axis 0.0 0.0 90.0 xyz
      dof rx ry rz
   end
   begin
      id 17
      name RightArm
      direction -1.000000 0.000000 0.000000
      length 10.797705
      axis 0.0 0.0 90.0 xyz
      dof rx ry rz
   end
   begin
      id 18
      name RightForeArm
      direction -1.000000 0.000000 0.000000
      length 7.907442
      axis 0.0 0.0 90.0 xyz
      dof ry rz rx
   end
   begin
      id 19
      name RightHand
      direction 0.000000 0.000000 0.000000
      length 0.000000
      axis 0.0 0.0 90.0 xyz
      dof rx ry rz
   end
   begin
      id 20
      name RightHand_dum1
      direction 0.000000 0.000000 0.000000
      length 0.000000
      axis 0.0 0.0 90.0 xyz
   end
   begin
      id 21
      name RightHand_dum2
      direction -1.000000 0.000000 0.000000
      length 3.937000
      axis 0.0 0.0 90.0 xyz
   end
   begin
      id 22
      name RightHandThumb1
      direction 0.000000 0.000000 1.000000
      length 3.937000
      axis 0.0 0.0 90.0 xyz
      dof rx rz ry
   end
   begin
      id 23
      name LeftUpLeg
      direction 0.000000 -1.000000 0.000000
      length 16.899758
      axis 0.0 0.0 0.0 xyz
      dof rx ry rz
   end
   begin
      id 24
      name LeftLeg
      direction 0.000000 -1.000000 0.000000
      length 17.389183
      axis 0.0 0.0 0.0 xyz
      dof rx ry rz
   end
   begin
      id 25
      name LeftFoot
      direction 0.000000 -0.258819 0.965926
      length 4.924528
      axis 15.0 0.0 0.0 xyz
      dof rx ry rz
   end
   begin
      id 26
      name LeftToeBase
      direction 0.000000 0.000000 1.000000
      length 2.952750
      axis 0.0 0.0 0.0 xyz
      dof rx ry rz
   end
   begin
      id 27
      name RightUpLeg
      direction 0.000000 -1.000000 0.000000
      length 16.899758
      axis 0.0 0.0 0.0 xyz
      dof rx ry rz
   end
   begin
      id 28
      name RightLeg
      direction 0.000000 -1.000000 0.000000
      length 17.389183
      axis 0.0 0.0 0.0 xyz
      dof rx ry rz
   end
   begin
      id 29
      name RightFoot
      direction 0.000000 -0.258819 0.965926
      length 4.924528
      axis 15.0 0.0 0.0 xyz
      dof rx ry rz
   end
   begin
      id 30
      name RightToeBase
      direction 0.000000 0.000000 1.000000
      length 2.952750
      axis 0.0 0.0 0.0 xyz
      dof rx ry rz
   end
:hierarchy
   begin
      root Spine_dum LeftUpLeg_dum RightUpLeg_dum
      Spine_dum Spine
      LeftUpLeg_dum LeftUpLeg
      RightUpLeg_dum RightUpLeg
      Spine Spine_dum1 Spine_dum2 Spine_dum3
      Spine_dum1 Head
      Spine_dum2 LeftShoulder
      Spine_dum3 RightShoulder
      LeftShoulder LeftArm
      LeftArm LeftForeArm
      LeftForeArm LeftHand
      LeftHand LeftHand_dum1 LeftHand_dum2
      LeftHand_dum1 LeftHandThumb1
      RightShoulder RightArm
      RightArm RightForeArm
      RightForeArm RightHand
      RightHand RightHand_dum1 RightHand_dum2
      RightHand_dum1 RightHandThumb1
      LeftUpLeg LeftLeg
      LeftLeg LeftFoot
      LeftFoot LeftToeBase
      RightUpLeg RightLeg
      RightLeg RightFoot
      RightFoot RightToeBase
   end

# File created by Blade
# Date/Time:  Wed Jan 21 16:02:01 2015
# Frame Rate: 120.000 fps
#------------------------------------------------------
:FULLY-SPECIFIED
:DEGREES
72
root 20.237909 35.529949 -19.857974 -177.395712 -0.476930 -176.779692
Spine -5.338891 1.963167 3.052722
Head 23.083373 -0.603827 0.935284
LeftShoulder -9.128039 -24.612673 1.989066
LeftArm -6.653597 6.473807 -38.889065
LeftForeArm 7.852142 -0.000000 0.462790
LeftHand -4.825109 0.000000 2.718325
LeftHandThumb1 -26.253704 0.000000 33.147579
RightShoulder -12.044025 -10.497800 1.582988
RightArm 19.622266 29.758139 46.817980
RightForeArm -27.507742 -0.000000 6.585869
RightHand -6.219953 0.000000 -6.368289
RightHandThumb1 -24.326973 -0.000000 -32.862282
LeftUpLeg -3.253991 8.873654 8.965267
LeftLeg 9.832400 -0.000000 -0.000000
LeftFoot -24.567847 25.872739 -16.138347
LeftToeBase 25.909869 -0.000000 -0.000000
RightUpLeg 2.234086 -5.562877 4.972077
RightLeg -1.564912 -0.000000 0.000000
RightFoot -20.524900 -24.686681 13.277497
RightToeBase 23.940329 -0.000000 -0.000000
73
root 20.333304 35.531387 -19.795050 -177.579204 -0.473824 -176.738286
Spine -4.818264 1.994767 3.012579
Head 23.646904 -0.466529 1.073604
LeftShoulder -9.069170 -24.544181 1.675135
LeftArm -7.070901 5.980841 -40.023853
LeftForeArm 7.865903 -0.000000 0.376338
LeftHand -4.848949 -0.000000 2.456973
LeftHandThumb1 -26.253704 0.000000 33.147579
RightShoulder -11.938952 -10.440323 1.942576
RightArm 19.764073 29.328853 47.948598
RightForeArm -27.327556 -0.000000 6.601048
RightHand -6.021905 -0.000000 -6.151891
RightHandThumb1 -24.326973 -0.000000 -32.862282
LeftUpLeg -3.579462 8.681166 9.178699
LeftLeg 10.615371 -0.000000 -0.000000
LeftFoot -24.454458 25.993074 -16.094542
LeftToeBase 25.770882 -0.000000 -0.000000
RightUpLeg 2.337616 -5.525454 5.156607
RightLeg -1.605782 -0.000000 0.000000
RightFoot -20.427437 -24.742468 13.177166
RightToeBase 23.895434 -0.000000 -0.000000
74
root 20.425781 35.535542 -19.726060 -177.782168 -0.443477 -176.739524
Spine -4.246993 2.012371 2.952967
Head 24.168928 -0.259841 1.197403
LeftShoulder -9.016618 -24.495278 1.305630
LeftArm -7.482270 5.499957 -41.082556
LeftForeArm 7.825742 -0.000000 0.275372
LeftHand -4.847747 -0.000000 2.252184
LeftHandThumb1 -26.253704 0.000000 33.147579
RightShoulder -11.742182 -10.430994 2.274332
RightArm 19.919679 28.920237 49.093411
RightForeArm -27.167824 0.000000 6.623938
RightHand -5.999900 -0.000000 -6.060067
RightHandThumb1 -24.326973 -0.000000 -32.862282
LeftUpLeg -3.874314 8.474749 9.351023
LeftLeg 11.382090 -0.000000 -0.000000
LeftFoot -24.358232 26.001703 -16.255526
LeftToeBase 25.532204 -0.000000 -0.000000
RightUpLeg 2.427801 -5.505044 5.287460
RightLeg -1.602344 -0.000000 0.000000
RightFoot -20.344377 -24.741163 13.094323
RightToeBase 23.892758 -0.000000 -0.000000
75
root 20.519970 35.541093 -19.661619 -177.996248 -0.421917 -176.785510
Spine -3.668481 2.100551 2.807087
Head 24.699972 -0.161679 1.334993
LeftShoulder -8.913691 -24.459214 0.967930
LeftArm -7.893931 4.995746 -42.140135
LeftForeArm 7.805789 0.000000 0.228008
LeftHand -4.882190 0.000000 2.005185
LeftHandThumb1 -26.253704 0.000000 33.147579
RightShoulder -11.623636 -10.507643 2.683869
RightArm 20.128757 28.484959 50.191331
RightForeArm -26.969571 0.000000 6.597168
RightHand -5.914170 0.000000 -6.016684
RightHandThumb1 -24.326973 -0.000000 -32.862282
LeftUpLeg -4.089336 8.219325 9.482888
LeftLeg 12.017908 -0.000000 -0.000000
LeftFoot -24.139570 26.091996 -16.343316
LeftToeBase 25.302240 -0.000000 -0.000000
RightUpLeg 2.554175 -5.499201 5.380075
RightLeg -1.639115 -0.000000 0.000000
RightFoot -20.254424 -24.766781 12.977473
RightToeBase 23.898469 -0.000000 -0.000000
